<svg width="80" height="80" viewBox="0 0 80 80" fill="none" xmlns="http://www.w3.org/2000/svg">
<mask id="path-1-inside-1_4_44" fill="white">
<path d="M0 40C0 17.9086 17.9086 0 40 0C62.0914 0 80 17.9086 80 40C80 62.0914 62.0914 80 40 80C17.9086 80 0 62.0914 0 40Z"/>
</mask>
<path d="M0 40C0 17.9086 17.9086 0 40 0C62.0914 0 80 17.9086 80 40C80 62.0914 62.0914 80 40 80C17.9086 80 0 62.0914 0 40Z" fill="url(#paint0_linear_4_44)"/>
<path d="M34.6167 48.5167C33.8752 49.6057 33.0798 50.6571 32.2333 51.6667C26.0833 51.4917 23.75 47.5 23.75 47.5C23.8374 41.8442 25.208 36.2822 27.7583 31.2333C30.0002 29.4795 32.7318 28.4661 35.575 28.3333L36.4083 30.2583" stroke="white" stroke-linecap="round" stroke-linejoin="round"/>
<path d="M30.1666 31.975C32.3292 31.0314 34.6216 30.419 36.9666 30.1583C37.972 30.0263 38.9862 29.9733 39.9999 30C41.0141 29.9789 42.0283 30.0374 43.0333 30.175C45.3783 30.4356 47.6707 31.0481 49.8333 31.9917M43.6083 30.25L44.4416 28.325C47.2876 28.4649 50.0195 29.4872 52.2583 31.25C54.8004 36.2952 56.1652 41.8512 56.2499 47.5C56.2499 47.5 53.9166 51.4917 47.7666 51.6667C46.9195 50.6489 46.124 49.5893 45.3833 48.4917M50.7666 46.075C48.535 47.4181 46.105 48.3997 43.5666 48.9833C42.392 49.2147 41.197 49.3264 39.9999 49.3167C38.8028 49.3264 37.6078 49.2147 36.4333 48.9833C33.8949 48.3997 31.4649 47.4181 29.2333 46.075M34.8749 38.8917C34.4705 38.9015 34.0727 38.9958 33.7069 39.1685C33.3411 39.3413 33.0155 39.5886 32.751 39.8947C32.4865 40.2008 32.289 40.5588 32.1711 40.9458C32.0533 41.3328 32.0177 41.7401 32.0666 42.1417C32.1003 42.8554 32.404 43.5296 32.9161 44.0278C33.4282 44.526 34.1106 44.811 34.8249 44.825C35.2316 44.8157 35.6319 44.7222 36.0005 44.5504C36.3692 44.3786 36.6982 44.1322 36.9668 43.8268C37.2354 43.5214 37.4378 43.1636 37.5611 42.776C37.6844 42.3884 37.726 41.9795 37.6833 41.575C37.6355 40.8576 37.3206 40.1841 36.8008 39.6874C36.2809 39.1906 35.5938 38.9067 34.8749 38.8917Z" stroke="white" stroke-linecap="round" stroke-linejoin="round"/>
<path d="M45.125 38.8917C45.5294 38.9015 45.9273 38.9958 46.2931 39.1685C46.6589 39.3413 46.9845 39.5886 47.2489 39.8947C47.5134 40.2008 47.711 40.5588 47.8288 40.9458C47.9467 41.3328 47.9823 41.7401 47.9334 42.1417C47.8997 42.8554 47.596 43.5296 47.0839 44.0278C46.5717 44.526 45.8894 44.811 45.175 44.825C44.7684 44.8157 44.3681 44.7222 43.9995 44.5504C43.6308 44.3786 43.3018 44.1322 43.0332 43.8268C42.7646 43.5214 42.5622 43.1636 42.4389 42.776C42.3156 42.3884 42.274 41.9795 42.3167 41.575C42.3645 40.8576 42.6793 40.1841 43.1992 39.6874C43.7191 39.1906 44.4062 38.9067 45.125 38.8917Z" stroke="white" stroke-linecap="round" stroke-linejoin="round"/>
<path d="M0 0H80H0ZM80 80H0H80ZM38 80C15.9086 80 -2 62.0914 -2 40C-2 17.9086 15.9086 0 38 0H40C19.0132 0 2 17.9086 2 40C2 62.0914 19.0132 80 40 80H38ZM42 0C64.0914 0 82 17.9086 82 40C82 62.0914 64.0914 80 42 80H40C60.9868 80 78 62.0914 78 40C78 17.9086 60.9868 0 40 0H42Z" fill="#FEFAFA" mask="url(#path-1-inside-1_4_44)"/>
<defs>
<linearGradient id="paint0_linear_4_44" x1="40" y1="0" x2="40" y2="80" gradientUnits="userSpaceOnUse">
<stop stop-color="#F0B050"/>
<stop offset="1" stop-color="#AF7006"/>
</linearGradient>
</defs>
</svg>
