<svg width="220" height="70" viewBox="0 0 220 70" fill="none" xmlns="http://www.w3.org/2000/svg">
<mask id="path-1-inside-1_7_90" fill="white">
<path d="M0 35C0 15.67 15.67 0 35 0H185C204.33 0 220 15.67 220 35C220 54.33 204.33 70 185 70H35C15.67 70 0 54.33 0 35Z"/>
</mask>
<path d="M0 35C0 15.67 15.67 0 35 0H185C204.33 0 220 15.67 220 35C220 54.33 204.33 70 185 70H35C15.67 70 0 54.33 0 35Z" fill="url(#paint0_linear_7_90)"/>
<path d="M100.809 28.5537L107.957 23.8076C109.09 25.4287 109.9 26.8936 110.389 28.2021C110.877 29.5107 111.121 30.79 111.121 32.04C111.121 33.2998 110.916 34.4619 110.506 35.5264C109.842 37.2549 108.885 38.8906 107.635 40.4336C106.385 41.9766 104.563 43.832 102.171 46C101.712 45.4531 101.219 45.0625 100.691 44.8281C100.174 44.584 99.6807 44.4619 99.2119 44.4619C98.5771 44.4619 97.9033 44.5693 97.1904 44.7842C96.4873 44.9893 95.5205 45.3945 94.29 46C93.8311 45.4824 93.3965 45.1309 92.9863 44.9453C92.4395 44.6914 91.7852 44.5645 91.0234 44.5645C90.2715 44.5645 89.5684 44.667 88.9141 44.8721C88.2695 45.0674 87.4736 45.4434 86.5264 46L86.1016 45.6777C87.6543 42.9824 88.4307 40.8145 88.4307 39.1738C88.4307 38.2266 88.1523 37.4502 87.5957 36.8447C87.0391 36.2295 86.4189 35.9219 85.7354 35.9219C85.335 35.9219 84.9199 36.0879 84.4902 36.4199L84.0654 36.0977C84.6221 34.9551 85.457 34.3838 86.5703 34.3838C86.9414 34.3838 87.3174 34.4766 87.6982 34.6621C88.0889 34.8477 88.4795 35.1309 88.8701 35.5117C88.8115 31.9863 88.2158 29.2861 87.083 27.4111C86.5166 26.4639 85.8623 25.9902 85.1201 25.9902C84.7686 25.9902 84.4561 26.1416 84.1826 26.4443C83.9092 26.7471 83.7041 27.3477 83.5674 28.2461L83.04 28.0996C83.1084 26.7422 83.4209 25.6875 83.9775 24.9355C84.5439 24.1836 85.3154 23.8076 86.292 23.8076C87.1904 23.8076 88.0742 24.1787 88.9434 24.9209C89.8223 25.6631 90.54 26.874 91.0967 28.5537L98.1865 23.8076C99.1436 24.999 100.018 26.5811 100.809 28.5537ZM91.2725 29.2422C91.5166 30.1211 91.6777 31.1074 91.7559 32.2012C92.4492 32.6016 93.0352 32.875 93.5137 33.0215C93.9922 33.1582 94.5098 33.2266 95.0664 33.2266C95.623 33.2266 96.1455 33.1582 96.6338 33.0215C97.1318 32.875 97.7373 32.6016 98.4502 32.2012C98.2451 30.9902 97.9766 29.96 97.6445 29.1104C97.3223 28.251 96.79 27.2207 96.0479 26.0195L91.2725 29.2422ZM100.999 29.1396C101.165 29.5889 101.277 29.9844 101.336 30.3262C101.404 30.668 101.478 31.293 101.556 32.2012C102.278 32.5723 102.864 32.8213 103.313 32.9482C103.763 33.0654 104.246 33.124 104.764 33.124C105.291 33.124 105.789 33.0605 106.258 32.9336C106.727 32.7969 107.293 32.5527 107.957 32.2012C107.869 31.2539 107.693 30.3994 107.43 29.6377C107.02 28.4658 106.453 27.2695 105.73 26.0488L100.999 29.1396ZM98.4502 32.9043C97.6592 33.3047 97.0195 33.5732 96.5312 33.71C96.0527 33.8467 95.5352 33.915 94.9785 33.915C94.4805 33.915 93.9629 33.8418 93.4258 33.6953C92.8984 33.5391 92.3516 33.3096 91.7852 33.0068V33.3877C91.7852 34.6768 91.5361 36.1074 91.0381 37.6797C91.6143 37.4355 92.1514 37.2549 92.6494 37.1377C93.1475 37.0107 93.6064 36.9473 94.0264 36.9473C94.6709 36.9473 95.2666 37.0352 95.8135 37.2109C96.3604 37.3867 97.0049 37.7041 97.7471 38.1631C98.2354 36.6494 98.4795 35.1846 98.4795 33.7686C98.4795 33.5732 98.4697 33.2852 98.4502 32.9043ZM107.957 33.0068C107.215 33.3291 106.619 33.5439 106.17 33.6514C105.73 33.749 105.252 33.7979 104.734 33.7979C104.246 33.7979 103.738 33.7344 103.211 33.6074C102.684 33.4707 102.142 33.2705 101.585 33.0068C101.556 33.8955 101.478 34.623 101.351 35.1895C101.224 35.7559 100.965 36.5029 100.574 37.4307C101.023 37.2646 101.453 37.1426 101.863 37.0645C102.283 36.9863 102.679 36.9473 103.05 36.9473C103.782 36.9473 104.446 37.0449 105.042 37.2402C105.638 37.4258 106.272 37.7432 106.946 38.1924C107.63 36.3369 107.972 34.7402 107.972 33.4023C107.972 33.3145 107.967 33.1826 107.957 33.0068ZM106.653 38.9248C105.999 38.4463 105.403 38.1143 104.866 37.9287C104.339 37.7334 103.738 37.6357 103.064 37.6357C102.615 37.6357 102.146 37.6895 101.658 37.7969C101.17 37.9043 100.662 38.0654 100.135 38.2803C99.6367 39.1982 99.041 40.1016 98.3477 40.9902C97.6641 41.8789 96.6631 43.002 95.3447 44.3594C96.8779 43.5391 98.1475 42.9727 99.1533 42.6602C100.159 42.3477 101.106 42.1914 101.995 42.1914C102.679 42.1914 103.445 42.3574 104.295 42.6895C105.223 41.4883 106.009 40.2334 106.653 38.9248ZM97.5127 38.9248C96.7803 38.4268 96.1797 38.0947 95.7109 37.9287C95.2422 37.7529 94.7295 37.665 94.1729 37.665C93.6748 37.665 93.1377 37.7432 92.5615 37.8994C91.9854 38.0557 91.3701 38.29 90.7158 38.6025C90.2764 39.7158 89.8223 40.707 89.3535 41.5762C88.8848 42.4453 88.2695 43.417 87.5078 44.4912C88.9824 43.71 90.2129 43.1729 91.1992 42.8799C92.1855 42.5771 93.1426 42.4258 94.0703 42.4258C94.5098 42.4258 95.0225 42.4697 95.6084 42.5576C96.3701 41.3857 97.0049 40.1748 97.5127 38.9248ZM124.729 24.335H125.403V26.9863L129.461 24.335C131.521 25.6338 132.942 26.6738 133.724 27.4551C134.515 28.2363 135.032 28.9688 135.276 29.6523C135.53 30.3359 135.657 31.3418 135.657 32.6699V42.001L131.146 46C129.944 45.5117 128.904 45.1553 128.025 44.9307C127.146 44.7061 126.272 44.5596 125.403 44.4912V50.2188H119.939V44.2275C118.475 44.3154 117.264 44.5352 116.307 44.8867C115.35 45.2383 114.388 45.7998 113.421 46.5713L112.952 46C114.29 44.5449 115.442 43.5244 116.409 42.9385C117.376 42.3525 118.553 41.918 119.939 41.6348C119.93 40.3066 119.759 39.2422 119.427 38.4414C119.095 37.6309 118.494 36.8984 117.625 36.2441C116.756 35.5801 115.647 35.0674 114.3 34.7061V34.0908C114.993 33.749 115.608 33.4023 116.146 33.0508L119.939 30.5605V29.5352C119.939 28.5781 119.847 27.8799 119.661 27.4404C119.476 26.9912 119.129 26.6201 118.621 26.3271C118.113 26.0342 117.552 25.8877 116.937 25.8877C116.263 25.8877 115.511 26.1367 114.681 26.6348L114.3 26.1807C114.983 25.5459 115.652 25.082 116.307 24.7891C116.971 24.4863 117.703 24.335 118.504 24.335C119.393 24.335 120.198 24.5254 120.921 24.9062C121.653 25.2773 122.171 25.7461 122.474 26.3125C122.786 26.8691 122.952 27.626 122.972 28.583L124.729 27.3965V24.335ZM125.403 32.5088C126.136 32.9971 126.771 33.334 127.308 33.5195C127.854 33.7051 128.436 33.7979 129.051 33.7979C129.666 33.7979 130.247 33.7051 130.794 33.5195C131.351 33.334 132 32.9971 132.742 32.5088C132.732 31.6689 132.605 30.9707 132.361 30.4141C132.117 29.8574 131.595 29.2568 130.794 28.6123C130.003 27.9678 128.836 27.2598 127.293 26.4883L125.403 27.748V32.5088ZM124.729 28.1875L122.972 29.3594V49.5742H124.729V28.1875ZM119.939 31.3809L116.746 33.4902C117.41 33.7832 117.977 34.0957 118.445 34.4277C118.914 34.75 119.412 35.1797 119.939 35.7168V31.3809ZM125.403 37.8262C126.185 37.3965 126.849 37.0986 127.396 36.9326C127.952 36.7666 128.519 36.6836 129.095 36.6836C129.671 36.6836 130.223 36.7666 130.75 36.9326C131.287 37.0889 131.951 37.3867 132.742 37.8262V33.2705C131.932 33.7393 131.253 34.0566 130.706 34.2227C130.169 34.3789 129.583 34.457 128.948 34.457C128.343 34.457 127.786 34.3838 127.278 34.2373C126.771 34.0908 126.146 33.8027 125.403 33.373V37.8262ZM125.403 41.6348C126.556 41.6738 127.688 41.8447 128.802 42.1475C129.925 42.4404 131.238 42.9434 132.742 43.6562V38.6611C132.01 38.1631 131.375 37.8262 130.838 37.6504C130.301 37.4648 129.72 37.3721 129.095 37.3721C128.47 37.3721 127.884 37.4648 127.337 37.6504C126.8 37.8262 126.155 38.1631 125.403 38.6611V41.6348Z" fill="white"/>
<path d="M0 0H220H0ZM220 70H0H220ZM33 70C13.67 70 -2 54.33 -2 35C-2 15.67 13.67 0 33 0H35C16.7746 0 2 15.67 2 35C2 54.33 16.7746 70 35 70H33ZM187 0C206.33 0 222 15.67 222 35C222 54.33 206.33 70 187 70H185C203.225 70 218 54.33 218 35C218 15.67 203.225 0 185 0H187Z" fill="white" mask="url(#path-1-inside-1_7_90)"/>
<defs>
<linearGradient id="paint0_linear_7_90" x1="110" y1="0" x2="110" y2="70" gradientUnits="userSpaceOnUse">
<stop stop-color="#F0B050"/>
<stop offset="1" stop-color="#AF7006"/>
</linearGradient>
</defs>
</svg>
