<svg width="220" height="70" viewBox="0 0 220 70" fill="none" xmlns="http://www.w3.org/2000/svg">
<mask id="path-1-inside-1_7_89" fill="white">
<path d="M0 35C0 15.67 15.67 0 35 0H185C204.33 0 220 15.67 220 35C220 54.33 204.33 70 185 70H35C15.67 70 0 54.33 0 35Z"/>
</mask>
<path d="M0 35C0 15.67 15.67 0 35 0H185C204.33 0 220 15.67 220 35C220 54.33 204.33 70 185 70H35C15.67 70 0 54.33 0 35Z" fill="url(#paint0_linear_7_89)"/>
<path d="M65.04 29.04C65.04 27.952 64.8907 27.152 64.592 26.64C64.2933 26.1067 63.696 25.84 62.8 25.84H62.48V24.88H75.888C77.7013 24.88 78.608 25.7333 78.608 27.44V30.16H77.648C77.648 28.816 77.3067 27.8453 76.624 27.248C75.9627 26.6293 74.9707 26.32 73.648 26.32H69.2V34.48H76.24V35.92H69.2V46H65.04V29.04ZM86.707 46.32C85.1497 46.32 83.7843 45.9787 82.611 45.296C81.459 44.592 80.5737 43.6533 79.955 42.48C79.3363 41.2853 79.027 39.952 79.027 38.48C79.027 37.008 79.3363 35.6853 79.955 34.512C80.5737 33.3173 81.459 32.3787 82.611 31.696C83.7843 30.992 85.1497 30.64 86.707 30.64C88.2643 30.64 89.619 30.992 90.771 31.696C91.9443 32.3787 92.8403 33.3173 93.459 34.512C94.0777 35.6853 94.387 37.008 94.387 38.48C94.387 39.952 94.0777 41.2853 93.459 42.48C92.8403 43.6533 91.9443 44.592 90.771 45.296C89.619 45.9787 88.2643 46.32 86.707 46.32ZM86.707 44.88C87.795 44.88 88.627 44.2933 89.203 43.12C89.779 41.9467 90.067 40.4 90.067 38.48C90.067 36.56 89.779 35.0133 89.203 33.84C88.627 32.6667 87.795 32.08 86.707 32.08C85.619 32.08 84.787 32.6667 84.211 33.84C83.635 35.0133 83.347 36.56 83.347 38.48C83.347 40.4 83.635 41.9467 84.211 43.12C84.787 44.2933 85.619 44.88 86.707 44.88ZM107.723 31.28C108.107 31.5573 108.385 31.8667 108.555 32.208C108.726 32.528 108.811 32.6987 108.811 32.72L107.179 33.968C107.03 33.776 106.838 33.5733 106.603 33.36C106.134 32.9333 105.59 32.72 104.971 32.72C103.734 32.72 102.785 33.0507 102.123 33.712L102.187 34.192C102.23 34.576 102.251 34.928 102.251 35.248V46H98.0913V35.12C98.0913 34.032 97.9419 33.232 97.6432 32.72C97.3659 32.1867 96.7793 31.92 95.8833 31.92H95.5633V30.96H98.7313C99.4566 30.96 100.022 31.056 100.427 31.248C100.854 31.4187 101.185 31.7173 101.419 32.144C102.571 31.1413 103.915 30.64 105.451 30.64C106.369 30.64 107.126 30.8533 107.723 31.28ZM118.506 46.32C117.354 46.32 116.416 46.032 115.69 45.456C115.328 45.2 115.04 44.9013 114.826 44.56H114.666L113.546 46H110.826V29.04C110.826 27.952 110.677 27.152 110.378 26.64C110.08 26.1067 109.482 25.84 108.586 25.84H108.266V24.88H112.106C112.874 24.88 113.461 25.008 113.866 25.264C114.272 25.52 114.56 25.9467 114.73 26.544C114.901 27.12 114.986 27.952 114.986 29.04V31.6C115.264 31.4293 115.562 31.2693 115.882 31.12C116.757 30.8 117.578 30.64 118.346 30.64C120.565 30.64 122.261 31.376 123.434 32.848C124.629 34.2987 125.226 36.176 125.226 38.48C125.226 40.784 124.64 42.672 123.466 44.144C122.314 45.5947 120.661 46.32 118.506 46.32ZM117.866 44.88C118.912 44.88 119.68 44.304 120.17 43.152C120.661 42 120.906 40.4427 120.906 38.48C120.906 34.2133 119.84 32.08 117.706 32.08C117.088 32.08 116.437 32.24 115.754 32.56C115.456 32.7307 115.2 32.8907 114.986 33.04V42.8C115.178 43.2267 115.413 43.5787 115.69 43.856C116.33 44.5387 117.056 44.88 117.866 44.88ZM134.95 46.32C133.478 46.32 132.188 45.9787 131.078 45.296C129.969 44.6133 129.105 43.6853 128.486 42.512C127.889 41.3173 127.59 39.9733 127.59 38.48C127.59 36.816 127.889 35.3973 128.486 34.224C129.105 33.0507 129.948 32.1653 131.014 31.568C132.081 30.9493 133.286 30.64 134.63 30.64C135.953 30.64 137.148 30.9067 138.214 31.44C139.281 31.9733 140.124 32.7307 140.742 33.712C141.361 34.672 141.67 35.7813 141.67 37.04C141.67 37.4453 141.649 37.904 141.606 38.416L141.542 39.056H131.91C131.91 41.0827 132.22 42.5653 132.838 43.504C133.457 44.4213 134.321 44.88 135.43 44.88C136.454 44.88 137.308 44.656 137.99 44.208C138.694 43.7387 139.366 43.0773 140.006 42.224L140.998 42.96C140.38 43.92 139.601 44.72 138.662 45.36C137.745 46 136.508 46.32 134.95 46.32ZM137.35 37.616C137.35 35.6107 137.116 34.192 136.646 33.36C136.177 32.5067 135.505 32.08 134.63 32.08C133.82 32.08 133.158 32.5173 132.646 33.392C132.156 34.2453 131.91 35.6533 131.91 37.616H137.35ZM150.016 46.32C147.52 46.32 145.802 45.8827 144.864 45.008C144.522 44.688 144.309 44.24 144.224 43.664C144.138 43.0667 144.096 42.2453 144.096 41.2H145.216C145.408 42.3093 145.845 43.2053 146.528 43.888C147.21 44.5493 148.16 44.88 149.376 44.88C151.509 44.88 152.576 44.1547 152.576 42.704C152.576 42.1493 152.341 41.6907 151.872 41.328C151.424 40.9653 150.698 40.56 149.696 40.112L148.032 39.408C146.666 38.8107 145.642 38.16 144.96 37.456C144.277 36.752 143.936 35.8987 143.936 34.896C143.936 33.552 144.49 32.5067 145.6 31.76C146.73 31.0133 148.202 30.64 150.016 30.64C152.512 30.64 154.229 31.0773 155.168 31.952C155.509 32.272 155.722 32.72 155.808 33.296C155.893 33.872 155.936 34.6933 155.936 35.76H154.816C154.624 34.6507 154.186 33.7653 153.504 33.104C152.821 32.4213 151.872 32.08 150.656 32.08C149.738 32.08 149.056 32.2827 148.608 32.688C148.16 33.072 147.936 33.5947 147.936 34.256C147.936 34.7893 148.117 35.2373 148.48 35.6C148.864 35.9413 149.44 36.2827 150.208 36.624L152.128 37.424C153.706 38.0853 154.837 38.7573 155.52 39.44C156.224 40.1013 156.576 40.976 156.576 42.064C156.576 43.4293 155.968 44.4853 154.752 45.232C153.557 45.9573 151.978 46.32 150.016 46.32Z" fill="white"/>
<path d="M0 0H220H0ZM220 70H0H220ZM33 70C13.67 70 -2 54.33 -2 35C-2 15.67 13.67 0 33 0H35C16.7746 0 2 15.67 2 35C2 54.33 16.7746 70 35 70H33ZM187 0C206.33 0 222 15.67 222 35C222 54.33 206.33 70 187 70H185C203.225 70 218 54.33 218 35C218 15.67 203.225 0 185 0H187Z" fill="white" mask="url(#path-1-inside-1_7_89)"/>
<defs>
<linearGradient id="paint0_linear_7_89" x1="110" y1="0" x2="110" y2="70" gradientUnits="userSpaceOnUse">
<stop stop-color="#F0B050"/>
<stop offset="1" stop-color="#AF7006"/>
</linearGradient>
</defs>
</svg>
