<svg width="220" height="70" viewBox="0 0 220 70" fill="none" xmlns="http://www.w3.org/2000/svg">
<mask id="path-1-inside-1_7_86" fill="white">
<path d="M0 35C0 15.67 15.67 0 35 0H185C204.33 0 220 15.67 220 35C220 54.33 204.33 70 185 70H35C15.67 70 0 54.33 0 35Z"/>
</mask>
<path d="M0 35C0 15.67 15.67 0 35 0H185C204.33 0 220 15.67 220 35C220 54.33 204.33 70 185 70H35C15.67 70 0 54.33 0 35Z" fill="url(#paint0_linear_7_86)"/>
<path d="M42.8145 47V25.54H55.5146L55.3682 28.6895H46.7549V34.7832H54.9434V37.9033H46.7549V47H42.8145ZM63.8789 42.0342C64.9434 43.3916 66.5156 44.0703 68.5957 44.0703C70.6758 44.0703 72.2432 43.3965 73.2979 42.0488C74.3623 40.6914 74.8945 38.7773 74.8945 36.3066C74.8945 33.8066 74.3623 31.8682 73.2979 30.4912C72.2432 29.1143 70.6807 28.4258 68.6104 28.4258C66.5303 28.4258 64.9531 29.1191 63.8789 30.5059C62.8145 31.8828 62.2822 33.8164 62.2822 36.3066C62.2822 38.7676 62.8145 40.6768 63.8789 42.0342ZM68.5811 47.3076C65.3486 47.3076 62.7949 46.3311 60.9199 44.3779C59.0547 42.415 58.1221 39.71 58.1221 36.2627C58.1221 32.7959 59.0596 30.0908 60.9346 28.1475C62.8096 26.2041 65.3633 25.2324 68.5957 25.2324C71.8281 25.2324 74.377 26.209 76.2422 28.1621C78.1074 30.1055 79.04 32.8105 79.04 36.2773C79.04 39.7051 78.1025 42.4004 76.2275 44.3633C74.3525 46.3262 71.8037 47.3076 68.5811 47.3076ZM82.7021 47V25.4814H90.6562C91.7402 25.4814 92.6777 25.5303 93.4688 25.6279C94.2695 25.7256 95.0264 25.9062 95.7393 26.1699C96.4619 26.4238 97.043 26.7705 97.4824 27.21C97.9316 27.6494 98.2832 28.2256 98.5371 28.9385C98.8008 29.6416 98.9326 30.4766 98.9326 31.4434C98.9326 34.2949 97.6387 36.1699 95.0508 37.0684C95.5781 37.6641 96.2324 38.7676 97.0137 40.3789L100.207 47H95.8711L93.3662 41.3896C92.4189 39.3779 91.833 38.1865 91.6084 37.8154C91.4424 37.8057 90.8906 37.8008 89.9531 37.8008L86.6279 37.7715V47H82.7021ZM91.0078 34.9297C92.5312 34.9297 93.625 34.6611 94.2891 34.124C94.9531 33.5771 95.2852 32.7031 95.2852 31.502C95.2852 30.4473 94.9482 29.6709 94.2744 29.1729C93.6006 28.6748 92.5703 28.4258 91.1836 28.4258H86.6279V34.915C86.7744 34.915 87.502 34.9199 88.8105 34.9297C90.1191 34.9297 90.8516 34.9297 91.0078 34.9297ZM107.37 47V28.7188H101.115V25.54H117.58V28.7188H111.354V47H107.37ZM128.479 47.3076C125.666 47.3076 123.532 46.6094 122.077 45.2129C120.622 43.8066 119.895 41.8291 119.895 39.2803V25.54H123.879V38.9434C123.879 40.7305 124.24 42.0342 124.963 42.8545C125.695 43.6748 126.892 44.085 128.552 44.085C130.183 44.085 131.364 43.6748 132.097 42.8545C132.829 42.0244 133.195 40.7158 133.195 38.9287V25.54H137.165V39.3096C137.165 41.8389 136.423 43.8066 134.938 45.2129C133.454 46.6094 131.301 47.3076 128.479 47.3076ZM141.604 47V25.54H145.822C146.584 26.7314 148.132 29.1338 150.466 32.7471C152.8 36.3604 154.221 38.5576 154.729 39.3389C154.875 39.5635 155.124 39.9443 155.476 40.4814C155.837 41.0088 156.091 41.3848 156.237 41.6094C156.169 38.2598 156.135 36.5215 156.135 36.3945V25.54H159.753V47H155.476L145.793 31.9121L145.09 30.7549C145.168 33.333 145.207 35.1445 145.207 36.1895V47H141.604ZM164.367 47V25.54H177.375L177.214 28.6895H168.337V34.2266H176.774V37.376H168.337V43.8359H177.536L177.404 47H164.367Z" fill="#F4F2F2"/>
<path d="M0 0H220H0ZM220 70H0H220ZM33 70C13.67 70 -2 54.33 -2 35C-2 15.67 13.67 0 33 0H35C16.7746 0 2 15.67 2 35C2 54.33 16.7746 70 35 70H33ZM187 0C206.33 0 222 15.67 222 35C222 54.33 206.33 70 187 70H185C203.225 70 218 54.33 218 35C218 15.67 203.225 0 185 0H187Z" fill="white" mask="url(#path-1-inside-1_7_86)"/>
<defs>
<linearGradient id="paint0_linear_7_86" x1="110" y1="0" x2="110" y2="70" gradientUnits="userSpaceOnUse">
<stop stop-color="#F0B050"/>
<stop offset="1" stop-color="#AF7006"/>
</linearGradient>
</defs>
</svg>
