<svg width="40" height="40" viewBox="0 0 40 40" fill="none" xmlns="http://www.w3.org/2000/svg">
<mask id="path-1-inside-1_7_98" fill="white">
<path d="M0 20C0 8.95431 8.95431 0 20 0C31.0457 0 40 8.95431 40 20C40 31.0457 31.0457 40 20 40C8.95431 40 0 31.0457 0 20Z"/>
</mask>
<path d="M0 20C0 8.95431 8.95431 0 20 0C31.0457 0 40 8.95431 40 20C40 31.0457 31.0457 40 20 40C8.95431 40 0 31.0457 0 20Z" fill="url(#paint0_linear_7_98)"/>
<g clip-path="url(#clip0_7_98)">
<path fill-rule="evenodd" clip-rule="evenodd" d="M27.777 12.43C28.0241 12.326 28.2946 12.2901 28.5603 12.3261C28.826 12.3621 29.0772 12.4686 29.2877 12.6347C29.4982 12.8007 29.6604 13.0201 29.7574 13.27C29.8543 13.52 29.8825 13.7914 29.839 14.056L27.571 27.813C27.351 29.14 25.895 29.901 24.678 29.24C23.66 28.687 22.148 27.835 20.788 26.946C20.108 26.501 18.025 25.076 18.281 24.062C18.501 23.195 22.001 19.937 24.001 18C24.786 17.239 24.428 16.8 23.501 17.5C21.198 19.238 17.503 21.881 16.281 22.625C15.203 23.281 14.641 23.393 13.969 23.281C12.743 23.077 11.606 22.761 10.678 22.376C9.42402 21.856 9.48502 20.132 10.677 19.63L27.777 12.43Z" fill="white"/>
</g>
<path d="M0 0H40H0ZM40 40H0H40ZM19.025 40C7.97931 40 -0.975 31.0457 -0.975 20C-0.975 8.9543 7.97931 0 19.025 0H20C9.49278 0 0.975 8.9543 0.975 20C0.975 31.0457 9.49278 40 20 40H19.025ZM20.975 0C32.0207 0 40.975 8.9543 40.975 20C40.975 31.0457 32.0207 40 20.975 40H20C30.5072 40 39.025 31.0457 39.025 20C39.025 8.9543 30.5072 0 20 0H20.975Z" fill="#FEFAFA" mask="url(#path-1-inside-1_7_98)"/>
<defs>
<linearGradient id="paint0_linear_7_98" x1="20" y1="0" x2="20" y2="40" gradientUnits="userSpaceOnUse">
<stop stop-color="#F0B050"/>
<stop offset="1" stop-color="#AF7006"/>
</linearGradient>
<clipPath id="clip0_7_98">
<rect width="24" height="24" fill="white" transform="translate(8 8)"/>
</clipPath>
</defs>
</svg>
