<svg width="220" height="70" viewBox="0 0 220 70" fill="none" xmlns="http://www.w3.org/2000/svg">
<mask id="path-1-inside-1_7_88" fill="white">
<path d="M0 35C0 15.67 15.67 0 35 0H185C204.33 0 220 15.67 220 35C220 54.33 204.33 70 185 70H35C15.67 70 0 54.33 0 35Z"/>
</mask>
<path d="M0 35C0 15.67 15.67 0 35 0H185C204.33 0 220 15.67 220 35C220 54.33 204.33 70 185 70H35C15.67 70 0 54.33 0 35Z" fill="url(#paint0_linear_7_88)"/>
<path d="M85.9414 23.5068C84.5156 24.0439 83.4121 24.8789 82.6309 26.0117C81.8594 27.1348 81.4736 28.5215 81.4736 30.1719C81.4736 30.7969 81.542 31.2949 81.6787 31.666C81.7178 31.793 81.7666 31.9053 81.8252 32.0029C81.8643 32.0713 81.8838 32.1396 81.8838 32.208C80.7998 32.208 80.0088 31.9932 79.5107 31.5635C78.9541 31.0947 78.6758 30.3379 78.6758 29.293C78.6758 28.6387 78.8174 27.9941 79.1006 27.3594C79.3838 26.7148 79.7842 26.0947 80.3018 25.499C80.79 24.9326 81.3711 24.4053 82.0449 23.917C82.7285 23.4189 83.4658 22.9893 84.2568 22.6279C85.917 21.876 87.5674 21.5 89.208 21.5C89.6572 21.5 90.0576 21.5195 90.4092 21.5586L90.6729 40.0156L96.9863 21.6465H100.795L101.059 40.0156L107.357 21.6465H109.467L101.117 44H96.7959L96.4443 28.7363L90.7461 44H86.4248L85.9414 23.5068ZM114.696 44.542C113.739 44.542 112.875 44.415 112.104 44.1611C111.332 43.917 110.668 43.5605 110.111 43.0918C109.545 42.623 109.11 42.0664 108.808 41.4219C108.515 40.7773 108.368 40.0645 108.368 39.2832C108.368 38.6289 108.471 38.0137 108.676 37.4375C108.891 36.8516 109.188 36.3438 109.569 35.9141C109.95 35.4844 110.395 35.1523 110.902 34.918C111.41 34.6738 111.947 34.5518 112.514 34.5518C113.217 34.5518 113.808 34.7275 114.286 35.0791C114.765 35.4307 115.062 35.9141 115.18 36.5293C114.135 36.5293 113.305 36.8076 112.689 37.3643C112.396 37.6279 112.167 37.9502 112.001 38.3311C111.845 38.7119 111.767 39.1318 111.767 39.5908C111.767 40.4697 112.021 41.168 112.528 41.6855C113.046 42.1934 113.739 42.4473 114.608 42.4473C115.126 42.4473 115.609 42.3545 116.059 42.1689C116.508 41.9736 116.898 41.71 117.23 41.3779C117.562 41.0459 117.816 40.6504 117.992 40.1914C118.178 39.7227 118.271 39.2246 118.271 38.6973C118.271 37.7207 117.938 36.7051 117.274 35.6504C117.011 35.2402 116.718 34.8398 116.396 34.4492C116.083 34.0488 115.644 33.5215 115.077 32.8672C114.569 32.2812 114.145 31.7734 113.803 31.3438C113.461 30.9141 113.153 30.4746 112.88 30.0254C112.216 28.9414 111.884 27.877 111.884 26.832C111.884 26.0508 112.05 25.3281 112.382 24.6641C112.714 23.9902 113.188 23.4043 113.803 22.9062C114.418 22.4082 115.136 22.0225 115.956 21.749C116.776 21.4756 117.66 21.3389 118.607 21.3389C120.219 21.3389 121.513 21.7197 122.489 22.4814C122.958 22.8525 123.314 23.2969 123.559 23.8145C123.812 24.332 123.939 24.9082 123.939 25.543C123.939 26.373 123.729 27.0518 123.31 27.5791C123.114 27.833 122.87 28.0283 122.577 28.165C122.294 28.3018 121.991 28.3701 121.669 28.3701C120.917 28.3701 120.307 28.0576 119.838 27.4326C120.219 27.1592 120.517 26.7979 120.731 26.3486C120.956 25.8896 121.068 25.4014 121.068 24.8838C121.068 24.2393 120.878 23.7314 120.497 23.3604C120.116 22.9795 119.594 22.7891 118.93 22.7891C118.529 22.7891 118.158 22.8623 117.816 23.0088C117.484 23.1553 117.201 23.3652 116.967 23.6387C116.723 23.9121 116.532 24.2344 116.396 24.6055C116.269 24.9766 116.205 25.3818 116.205 25.8213C116.205 26.4463 116.352 27.0469 116.645 27.623C116.938 28.1992 117.357 28.7998 117.904 29.4248C118.393 30.001 118.92 30.5723 119.486 31.1387C120.805 32.5059 121.737 33.8389 122.284 35.1377C122.606 35.9092 122.768 36.7588 122.768 37.6865C122.768 38.6631 122.567 39.5713 122.167 40.4111C121.767 41.2412 121.195 41.9639 120.453 42.5791C119.711 43.2041 118.847 43.6875 117.86 44.0293C116.874 44.3711 115.819 44.542 114.696 44.542ZM129.418 50.2109C128.002 50.2109 126.903 49.8203 126.122 49.0391C125.36 48.2969 124.979 47.2764 124.979 45.9775C124.979 45.4697 125.062 44.9717 125.229 44.4834C125.395 44.0049 125.629 43.5801 125.932 43.209C126.254 42.8184 126.64 42.5156 127.089 42.3008C127.548 42.0762 128.065 41.9639 128.642 41.9639C129.042 41.9639 129.394 41.9834 129.696 42.0225C130.009 42.0518 130.297 42.125 130.561 42.2422C131.234 42.5449 131.571 43.1211 131.571 43.9707C131.571 44.3223 131.513 44.7227 131.396 45.1719C131.034 44.8691 130.717 44.6592 130.443 44.542C130.199 44.4443 129.916 44.3955 129.594 44.3955C128.93 44.3955 128.407 44.625 128.026 45.084C127.851 45.2793 127.719 45.5088 127.631 45.7725C127.543 46.0459 127.499 46.3242 127.499 46.6074C127.499 47.3203 127.733 47.8672 128.202 48.248C128.388 48.4043 128.598 48.5215 128.832 48.5996C129.066 48.6777 129.301 48.7168 129.535 48.7168C129.887 48.7168 130.194 48.668 130.458 48.5703C130.731 48.4727 130.98 48.2969 131.205 48.043C131.664 47.5059 132.06 46.5 132.392 45.0254L137.094 23.5947C135.746 24.1514 134.701 24.9912 133.959 26.1143C133.227 27.2275 132.86 28.5801 132.86 30.1719C132.86 30.8164 132.934 31.3145 133.08 31.666C133.119 31.793 133.168 31.9053 133.227 32.0029C133.266 32.0713 133.285 32.1396 133.285 32.208C132.201 32.208 131.41 31.9932 130.912 31.5635C130.355 31.0947 130.077 30.3379 130.077 29.293C130.077 28.6387 130.219 27.9941 130.502 27.3594C130.785 26.7148 131.186 26.0947 131.703 25.499C132.191 24.9326 132.772 24.4053 133.446 23.917C134.13 23.4189 134.867 22.9893 135.658 22.6279C137.318 21.876 138.969 21.5 140.609 21.5H141.811L137.313 42.7988C137.06 43.9902 136.732 45.0352 136.332 45.9336C135.941 46.8418 135.448 47.6035 134.853 48.2188C134.218 48.873 133.456 49.3662 132.567 49.6982C131.679 50.04 130.629 50.2109 129.418 50.2109Z" fill="white"/>
<path d="M0 0H220H0ZM220 70H0H220ZM33 70C13.67 70 -2 54.33 -2 35C-2 15.67 13.67 0 33 0H35C16.7746 0 2 15.67 2 35C2 54.33 16.7746 70 35 70H33ZM187 0C206.33 0 222 15.67 222 35C222 54.33 206.33 70 187 70H185C203.225 70 218 54.33 218 35C218 15.67 203.225 0 185 0H187Z" fill="white" mask="url(#path-1-inside-1_7_88)"/>
<defs>
<linearGradient id="paint0_linear_7_88" x1="110" y1="0" x2="110" y2="70" gradientUnits="userSpaceOnUse">
<stop stop-color="#F0B050"/>
<stop offset="1" stop-color="#AF7006"/>
</linearGradient>
</defs>
</svg>
