<svg width="40" height="40" viewBox="0 0 40 40" fill="none" xmlns="http://www.w3.org/2000/svg">
<mask id="path-1-inside-1_7_103" fill="white">
<path d="M0 20C0 8.95431 8.95431 0 20 0C31.0457 0 40 8.95431 40 20C40 31.0457 31.0457 40 20 40C8.95431 40 0 31.0457 0 20Z"/>
</mask>
<path d="M0 20C0 8.95431 8.95431 0 20 0C31.0457 0 40 8.95431 40 20C40 31.0457 31.0457 40 20 40C8.95431 40 0 31.0457 0 20Z" fill="url(#paint0_linear_7_103)"/>
<path d="M16.29 27.8575C23.8363 27.8575 27.965 21.8113 27.965 16.5675C27.965 16.3963 27.965 16.225 27.9525 16.055C28.7517 15.4971 29.4451 14.8013 30 14C29.25 14.32 28.4562 14.5313 27.6437 14.625C28.493 14.1378 29.1346 13.3566 29.4475 12.4288C28.6412 12.8913 27.76 13.2163 26.8412 13.3913C26.2148 12.7516 25.3984 12.3316 24.5138 12.1938C23.6239 12.0522 22.7121 12.1985 21.9113 12.6113C21.1217 13.0166 20.488 13.6713 20.1087 14.4738C19.7363 15.2655 19.6446 16.1605 19.8488 17.0113C18.2218 16.9331 16.628 16.5235 15.165 15.8075C13.7165 15.0998 12.4316 14.0976 11.3925 12.865C10.8683 13.7326 10.7066 14.7717 10.9425 15.7575C11.1788 16.7413 11.7925 17.6013 12.6625 18.1625C12.0114 18.1441 11.3736 17.9737 10.8 17.665V17.715C10.8 18.6325 11.1288 19.52 11.7287 20.2275C12.3367 20.942 13.17 21.4279 14.0912 21.605C13.4875 21.765 12.8537 21.7875 12.2387 21.6738C12.5062 22.4679 13.017 23.1577 13.6988 23.645C14.3925 24.1414 15.2209 24.4148 16.0738 24.4288C14.3383 25.7424 12.1613 26.3324 10 26.075C11.8897 27.243 14.0685 27.8592 16.29 27.8538" fill="white"/>
<path d="M0 0H40H0ZM40 40H0H40ZM19.025 40C7.97931 40 -0.975 31.0457 -0.975 20C-0.975 8.9543 7.97931 0 19.025 0H20C9.49278 0 0.975 8.9543 0.975 20C0.975 31.0457 9.49278 40 20 40H19.025ZM20.975 0C32.0207 0 40.975 8.9543 40.975 20C40.975 31.0457 32.0207 40 20.975 40H20C30.5072 40 39.025 31.0457 39.025 20C39.025 8.9543 30.5072 0 20 0H20.975Z" fill="#FEFAFA" mask="url(#path-1-inside-1_7_103)"/>
<defs>
<linearGradient id="paint0_linear_7_103" x1="20" y1="0" x2="20" y2="40" gradientUnits="userSpaceOnUse">
<stop stop-color="#F0B050"/>
<stop offset="1" stop-color="#AF7006"/>
</linearGradient>
</defs>
</svg>
