<svg width="650" height="650" viewBox="0 0 650 650" fill="none" xmlns="http://www.w3.org/2000/svg">
<circle cx="218" cy="568" r="10" fill="url(#paint0_linear_7_113)"/>
<circle cx="575" cy="408" r="10" fill="url(#paint1_linear_7_113)"/>
<circle cx="400.5" cy="154.5" r="7.5" fill="url(#paint2_linear_7_113)"/>
<circle cx="67.5" cy="278.5" r="8.5" fill="url(#paint3_linear_7_113)"/>
<mask id="path-5-inside-1_7_113" fill="white">
<path d="M0 486C0 463.909 17.9086 446 40 446C62.0914 446 80 463.909 80 486C80 508.091 62.0914 526 40 526C17.9086 526 0 508.091 0 486Z"/>
</mask>
<path d="M0 486C0 463.909 17.9086 446 40 446C62.0914 446 80 463.909 80 486C80 508.091 62.0914 526 40 526C17.9086 526 0 508.091 0 486Z" fill="url(#paint4_linear_7_113)"/>
<path d="M36.9708 484.106C35.9783 485.473 35.5692 487.178 35.8334 488.846C36.0976 490.514 37.0135 492.009 38.3797 493.002L43.5323 496.747C44.899 497.74 46.6042 498.149 48.2728 497.885C49.9413 497.621 51.4365 496.704 52.4295 495.338C53.4225 493.971 53.8319 492.266 53.5676 490.597C53.3033 488.929 52.3871 487.433 51.0203 486.44L48.4442 484.569" stroke="white" stroke-width="2" stroke-linecap="round" stroke-linejoin="round"/>
<path d="M42.1233 487.85C43.1158 486.483 43.5249 484.778 43.2607 483.11C42.9965 481.442 42.0806 479.947 40.7144 478.954L35.5618 475.209C34.1951 474.216 32.4899 473.807 30.8213 474.071C29.1528 474.335 27.6575 475.251 26.6646 476.618C25.6716 477.985 25.2622 479.69 25.5265 481.359C25.7908 483.027 26.707 484.522 28.0737 485.515L30.6499 487.387" stroke="white" stroke-width="2" stroke-linecap="round" stroke-linejoin="round"/>
<path d="M0 446H80H0ZM80 526H0H80ZM38 526C15.9086 526 -2 508.091 -2 486C-2 463.909 15.9086 446 38 446H40C19.0132 446 2 463.909 2 486C2 508.091 19.0132 526 40 526H38ZM42 446C64.0914 446 82 463.909 82 486C82 508.091 64.0914 526 42 526H40C60.9868 526 78 508.091 78 486C78 463.909 60.9868 446 40 446H42Z" fill="#FEFAFA" mask="url(#path-5-inside-1_7_113)"/>
<circle cx="325.5" cy="325.5" r="262.25" stroke="#F3D162" stroke-opacity="0.78" stroke-width="0.5"/>
<circle cx="325" cy="325" r="324.75" stroke="#F3D162" stroke-opacity="0.51" stroke-width="0.5"/>
<circle cx="325.5" cy="325.5" r="187" stroke="#F3D162" stroke-opacity="0.9"/>
<mask id="path-12-inside-2_7_113" fill="white">
<path d="M218 325.5C218 266.129 266.129 218 325.5 218C384.871 218 433 266.129 433 325.5C433 384.871 384.871 433 325.5 433C266.129 433 218 384.871 218 325.5Z"/>
</mask>
<path d="M218 325.5C218 266.129 266.129 218 325.5 218C384.871 218 433 266.129 433 325.5C433 384.871 384.871 433 325.5 433C266.129 433 218 384.871 218 325.5Z" fill="#2B1C07"/>
<rect x="385" y="385" width="119" height="119" rx="59.5" transform="rotate(-180 385 385)" fill="url(#paint5_linear_7_113)"/>
<path d="M294.56 325.68C294.56 320.133 295.707 315.2 298 310.88C300.347 306.507 303.653 303.12 307.92 300.72C312.187 298.267 317.093 297.04 322.64 297.04C329.68 297.04 335.6 298.933 340.4 302.72C345.2 306.453 348.293 311.547 349.68 318H332.8C331.787 315.867 330.373 314.24 328.56 313.12C326.8 312 324.747 311.44 322.4 311.44C318.773 311.44 315.867 312.747 313.68 315.36C311.547 317.92 310.48 321.36 310.48 325.68C310.48 330.053 311.547 333.547 313.68 336.16C315.867 338.72 318.773 340 322.4 340C324.747 340 326.8 339.44 328.56 338.32C330.373 337.2 331.787 335.573 332.8 333.44H349.68C348.293 339.893 345.2 345.013 340.4 348.8C335.6 352.533 329.68 354.4 322.64 354.4C317.093 354.4 312.187 353.2 307.92 350.8C303.653 348.347 300.347 344.96 298 340.64C295.707 336.267 294.56 331.28 294.56 325.68Z" fill="#1E1400"/>
<rect width="12.3693" height="12.3693" transform="matrix(0.857493 -0.514496 0.857493 0.514496 353 325.764)" fill="#1E1400"/>
<path d="M218 218H433H218ZM433 433H218H433ZM323.5 433C264.129 433 216 384.871 216 325.5C216 266.129 264.129 218 323.5 218H325.5C267.234 218 220 266.129 220 325.5C220 384.871 267.234 433 325.5 433H323.5ZM327.5 218C386.871 218 435 266.129 435 325.5C435 384.871 386.871 433 327.5 433H325.5C383.766 433 431 384.871 431 325.5C431 266.129 383.766 218 325.5 218H327.5Z" fill="#F3D162" mask="url(#path-12-inside-2_7_113)"/>
<rect x="148.5" y="86.5" width="54" height="54" rx="27" fill="#1D1405"/>
<path d="M188.224 101.088V126H184.948V107.424L176.668 126H174.364L166.048 107.388V126H162.772V101.088H166.3L175.516 121.68L184.732 101.088H188.224Z" fill="#B9B9B9"/>
<line x1="158" y1="109" x2="194" y2="109" stroke="#B9B9B9" stroke-width="2"/>
<line x1="158" y1="117" x2="194" y2="117" stroke="#B9B9B9" stroke-width="2"/>
<rect x="148.5" y="86.5" width="54" height="54" rx="27" stroke="#392E1A"/>
<circle cx="456.5" cy="555.5" r="32.5" fill="#BE623D"/>
<path d="M456.5 533L475.986 566.75H437.014L456.5 533Z" fill="#97EBDE"/>
<line x1="455.409" y1="569.488" x2="469.409" y2="545.488" stroke="#BE623D" stroke-width="6"/>
<circle cx="597.5" cy="154.5" r="32.5" fill="#FFFFFD"/>
<path d="M608.294 173.25L598.765 177L576 165.695V143.25L583.412 137.625V161.531L608.294 173.25ZM608.294 173.25L621 167.156V139.031L598.765 132V139.969L612.529 144.188V163.832L600.353 168.812" stroke="#66615D" stroke-width="3"/>
<circle cx="599" cy="154" r="5" fill="#66615D"/>
<defs>
<linearGradient id="paint0_linear_7_113" x1="218" y1="558" x2="218" y2="578" gradientUnits="userSpaceOnUse">
<stop stop-color="#F0B050"/>
<stop offset="1" stop-color="#AF7006"/>
</linearGradient>
<linearGradient id="paint1_linear_7_113" x1="575" y1="398" x2="575" y2="418" gradientUnits="userSpaceOnUse">
<stop stop-color="#F0B050"/>
<stop offset="1" stop-color="#AF7006"/>
</linearGradient>
<linearGradient id="paint2_linear_7_113" x1="400.5" y1="147" x2="400.5" y2="162" gradientUnits="userSpaceOnUse">
<stop stop-color="#F0B050"/>
<stop offset="1" stop-color="#AF7006"/>
</linearGradient>
<linearGradient id="paint3_linear_7_113" x1="67.5" y1="270" x2="67.5" y2="287" gradientUnits="userSpaceOnUse">
<stop stop-color="#F0B050"/>
<stop offset="1" stop-color="#AF7006"/>
</linearGradient>
<linearGradient id="paint4_linear_7_113" x1="40" y1="446" x2="40" y2="526" gradientUnits="userSpaceOnUse">
<stop stop-color="#F0B050"/>
<stop offset="1" stop-color="#AF7006"/>
</linearGradient>
<linearGradient id="paint5_linear_7_113" x1="444.5" y1="385" x2="444.5" y2="504" gradientUnits="userSpaceOnUse">
<stop stop-color="#F0B050"/>
<stop offset="1" stop-color="#AF7006"/>
</linearGradient>
</defs>
</svg>
